<svg width="609" height="583" viewBox="0 0 609 583" fill="none" xmlns="http://www.w3.org/2000/svg">
<g opacity="0.4">
<path d="M608.544 513.262L608.544 0.380859L411.133 0.380859L411.133 513.262H608.544Z" fill="#FAFAFA"/>
<path d="M411.136 513.257L411.136 0.376099L410.399 0.376099L410.399 513.257H411.136Z" fill="#F0F0F0"/>
<path d="M586.559 17.2115H425.411V513.257H586.559V17.2115Z" fill="#E6E6E6"/>
<path d="M595.197 17.2115H429.445V513.257H595.197V17.2115Z" fill="#F0F0F0"/>
<path d="M583.109 269.354V275.614L588.2 269.354H583.109Z" fill="#E0E0E0"/>
<path d="M583.105 498.438L583.105 32.0209L441.515 32.0209L441.515 498.438L583.105 498.438Z" fill="#EBEBEB"/>
<path d="M583.109 498.45L583.109 32.0334H581.579L581.579 498.45H583.109Z" fill="#E6E6E6"/>
<path d="M556.777 266.812C554.621 266.812 552.855 268.961 552.855 271.622C552.855 274.266 554.607 276.415 556.777 276.415H581.565L583.095 275.597V266.812H556.777Z" fill="#E0E0E0"/>
<path d="M586.851 270.036H562.063C559.907 270.036 558.141 267.887 558.141 265.226C558.141 262.582 559.893 260.416 562.063 260.416H586.851C589.007 260.416 590.774 262.565 590.774 265.226C590.774 267.887 589.021 270.036 586.851 270.036Z" fill="#F5F5F5"/>
<path d="M84.8922 189.389C84.8504 190.259 84.2523 190.975 83.529 190.975C82.8195 190.975 82.2631 190.259 82.3049 189.389C82.3466 188.519 82.9447 187.802 83.6681 187.802C84.3914 187.802 84.9339 188.502 84.8922 189.389Z" fill="#E0E0E0"/>
<path d="M90.9013 189.389C90.8595 190.259 90.2614 190.975 89.5381 190.975C88.8287 190.975 88.2723 190.259 88.314 189.389C88.3558 188.519 88.9539 187.802 89.6772 187.802C90.3866 187.802 90.9291 188.502 90.9013 189.389Z" fill="white"/>
<path d="M344.343 292.876H282.373V513.257H344.343V292.876Z" fill="#E6E6E6"/>
<path d="M332.575 513.257H344.343V496.643H320.237L332.575 513.257Z" fill="#F0F0F0"/>
<path d="M112.726 292.876H74.3762V513.257H112.726V292.876Z" fill="#E6E6E6"/>
<path d="M108.873 277.746H67.7132V292.876H108.873V277.746Z" fill="#E0E0E0"/>
<path d="M344.343 292.876H102.447V508.89H344.343V292.876Z" fill="#F0F0F0"/>
<path d="M350.992 277.746H98.1345V292.876H350.992V277.746Z" fill="#F5F5F5"/>
<path d="M335.204 397.71V463.791C335.204 466.827 333.187 469.3 330.711 469.3H231.838C229.362 469.3 227.345 466.827 227.345 463.791V397.71C227.345 394.674 229.362 392.201 231.838 392.201H330.711C333.201 392.201 335.204 394.657 335.204 397.71Z" fill="#E6E6E6"/>
<path d="M219.444 397.71V463.791C219.444 466.827 217.427 469.3 214.951 469.3H116.079C113.603 469.3 111.586 466.827 111.586 463.791V397.71C111.586 394.674 113.603 392.201 116.079 392.201H214.951C217.427 392.201 219.444 394.657 219.444 397.71Z" fill="#E6E6E6"/>
<path d="M335.204 486.238C335.204 489.274 333.187 491.748 330.711 491.748H116.079C113.603 491.748 111.586 489.274 111.586 486.238C111.586 483.202 113.603 480.729 116.079 480.729H330.725C333.201 480.729 335.204 483.202 335.204 486.238Z" fill="#E6E6E6"/>
<path d="M176.184 401.054H154.846C145.582 401.054 136.721 397.454 130.336 391.092H200.693C194.309 397.454 185.448 401.054 176.184 401.054Z" fill="#F0F0F0"/>
<path d="M293.042 401.054H271.704C262.44 401.054 253.58 397.454 247.195 391.092H317.552C311.167 397.454 302.307 401.054 293.042 401.054Z" fill="#F0F0F0"/>
<path d="M335.204 310.24V376.32C335.204 379.357 333.187 381.83 330.711 381.83H231.838C229.362 381.83 227.345 379.357 227.345 376.32V310.24C227.345 307.204 229.362 304.731 231.838 304.731H330.711C333.201 304.731 335.204 307.204 335.204 310.24Z" fill="#E6E6E6"/>
<path d="M219.444 310.24V376.32C219.444 379.357 217.427 381.83 214.951 381.83H116.079C113.603 381.83 111.586 379.357 111.586 376.32V310.24C111.586 307.204 113.603 304.731 116.079 304.731H214.951C217.427 304.731 219.444 307.204 219.444 310.24Z" fill="#E6E6E6"/>
<path d="M176.184 313.6H154.846C145.582 313.6 136.721 310.001 130.336 303.639H200.693C194.309 309.984 185.448 313.6 176.184 313.6Z" fill="#F0F0F0"/>
<path d="M293.042 313.6H271.704C262.44 313.6 253.58 310.001 247.195 303.639H317.552C311.167 309.984 302.307 313.6 293.042 313.6Z" fill="#F0F0F0"/>
<path d="M114.215 513.257H102.447V496.643H126.567L114.215 513.257Z" fill="#F0F0F0"/>
<path d="M126.08 240.22C126.08 252.91 140.421 263.196 158.115 263.196C175.808 263.196 190.15 252.91 190.15 240.22H126.08Z" fill="#F0F0F0"/>
<path d="M126.08 254.787C126.08 267.477 140.421 277.763 158.115 277.763C175.808 277.763 190.15 267.477 190.15 254.787H126.08Z" fill="#E0E0E0"/>
</g>
<path d="M273.457 582.46C424.483 582.46 546.914 569.348 546.914 553.174C546.914 537.001 424.483 523.889 273.457 523.889C122.431 523.889 0 537.001 0 553.174C0 569.348 122.431 582.46 273.457 582.46Z" fill="#F5F5F5"/>
<path d="M341.989 546.849H307.267L275.72 425.183C269.624 401.649 251.992 385.835 231.845 385.835H207.458C187.327 385.835 169.696 401.649 163.599 425.183L132.035 546.849H97.3471L129.485 422.865C136.409 396.122 156.422 378.176 179.305 378.176H259.997C282.864 378.176 302.893 396.122 309.834 422.865L341.989 546.849Z" fill="#407BFF"/>
<path opacity="0.4" d="M341.989 546.849H307.267L275.72 425.183C269.624 401.649 251.992 385.835 231.845 385.835H207.458C187.327 385.835 169.696 401.649 163.599 425.183L132.035 546.849H97.3471L129.485 422.865C136.409 396.122 156.422 378.176 179.305 378.176H259.997C282.864 378.176 302.893 396.122 309.834 422.865L341.989 546.849Z" fill="black"/>
<path d="M341.99 546.849H335.42L303.873 425.183C297.776 401.649 280.145 385.835 259.997 385.835H207.458C187.327 385.835 169.696 401.649 163.6 425.183L132.035 546.849H125.5L157.638 422.865C164.562 396.122 184.575 378.176 207.458 378.176H259.997C282.864 378.176 302.893 396.122 309.834 422.865L341.99 546.849Z" fill="#407BFF"/>
<path d="M497.53 212.278C495.621 208.614 492.311 206.399 488.748 206.399H348.677C344.607 206.399 340.926 209.297 339.22 213.809L257.751 430.234H107.767C102.008 430.234 97.3471 435.947 97.3471 443.005C97.3471 450.063 102.008 455.776 107.767 455.776H404.493C408.563 455.776 412.244 452.878 413.95 448.366L498.205 224.531C499.692 220.557 499.438 215.941 497.53 212.278Z" fill="#407BFF"/>
<path opacity="0.5" d="M497.53 212.278C495.621 208.614 492.311 206.399 488.748 206.399H348.677C344.607 206.399 340.926 209.297 339.22 213.809L257.751 430.234H107.767C102.008 430.234 97.3471 435.947 97.3471 443.005C97.3471 450.063 102.008 455.776 107.767 455.776H404.493C408.563 455.776 412.244 452.878 413.95 448.366L498.205 224.531C499.692 220.557 499.438 215.941 497.53 212.278Z" fill="white"/>
<path opacity="0.5" d="M404.493 455.775H247.838C242.079 455.775 237.418 450.063 237.418 443.004C237.418 435.946 242.079 430.233 247.838 430.233H397.822L479.291 213.809C481.706 207.413 487.887 204.619 493.105 207.558C498.324 210.518 500.603 218.093 498.205 224.489L413.95 448.324C412.244 452.878 408.563 455.775 404.493 455.775Z" fill="#407BFF"/>
<path d="M349.623 240.469L347.444 241.462L345.435 242.331C344.1 242.911 342.749 243.387 341.415 243.904C338.73 244.898 336.028 245.767 333.275 246.533C327.77 248.044 322.129 249.224 316.184 249.638C310.256 250.052 304.008 249.907 297.303 247.879L296.054 247.485L295.429 247.278L295.108 247.175C295.006 247.154 294.922 247.113 294.652 247.009C292.828 246.326 291.055 245.229 289.484 243.842C286.326 241.027 284.046 236.97 283.016 232.541C281.935 228.132 282.121 223.247 283.438 219.004C283.641 218.321 283.674 218.3 283.759 218.073L283.995 217.472L284.468 216.251L285.397 213.829C287.947 207.475 290.818 201.617 293.909 196.111C296.949 190.543 300.259 185.327 303.636 180.256C307.048 175.206 310.56 170.342 314.242 165.664C317.941 160.986 321.639 156.494 325.777 152.148L334.93 162.207C329.509 172.494 323.919 182.968 318.92 193.462C317.637 196.07 316.438 198.699 315.205 201.327C314.073 203.977 312.84 206.585 311.76 209.234C309.497 214.471 307.588 219.791 305.933 224.924L305.359 226.849L305.072 227.801L304.92 228.277C304.886 228.401 304.785 228.732 304.886 228.443C305.325 227.18 305.426 225.607 305.122 224.199C304.818 222.792 304.143 221.426 303.062 220.432C302.539 219.936 301.931 219.563 301.34 219.315C301.204 219.273 301.272 219.294 301.34 219.294L301.492 219.315L301.812 219.377L302.437 219.501C305.781 220.163 309.936 220.122 314.225 219.563C318.532 218.963 323.041 217.969 327.55 216.624C329.813 216.003 332.059 215.196 334.305 214.43L337.649 213.188L339.287 212.567L340.74 211.987L349.623 240.469Z" fill="#FF8B7B"/>
<path d="M372.473 221.26C366.967 208.427 349.674 202.052 317.366 213.995L317.839 257.503C317.839 257.503 386.743 254.544 372.473 221.26Z" fill="#407BFF"/>
<path opacity="0.2" d="M353.304 228.008C343.695 225.152 331.417 232.851 319.444 257.421C325.81 256.965 349.521 254.813 363.623 246.078C364.248 237.405 361.664 230.471 353.304 228.008Z" fill="black"/>
<path d="M155.831 543.972L138.689 535.796L148.265 483.47L165.406 491.646L155.831 543.972Z" fill="#FF8B7B"/>
<path d="M141.594 526.399L158.364 526.772C159.09 526.792 159.681 527.475 159.8 528.428L162.485 549.768C162.755 551.982 161.404 554.052 159.749 553.99C152.859 553.7 149.7 553.059 141.02 552.914C135.683 552.81 119.538 553.287 112.158 553.162C104.947 553.038 104.187 543.082 107.244 542.233C120.94 538.446 134.163 533.043 138.706 527.827C139.5 526.875 140.53 526.378 141.594 526.399Z" fill="#263238"/>
<path opacity="0.2" d="M165.406 491.667L148.248 483.491L143.317 510.461L160.999 515.801L165.406 491.667Z" fill="black"/>
<path d="M290.565 361.638C290.565 361.638 252.583 361.39 196.869 375.196C158.28 384.759 139.5 495.807 139.5 495.807L167.078 507.853C167.078 507.853 185.605 432.407 203.388 415.951C295.918 415.392 342.125 449.131 353.575 374.72C338.257 367.165 290.565 361.638 290.565 361.638Z" fill="black"/>
<path d="M133.792 502.161L170.895 511.662L173.867 496.634L135.16 485.768L133.792 502.161Z" fill="#407BFF"/>
<path d="M323.632 154.404L332.312 142.688L347.546 155.025C347.546 155.025 338.173 169.555 327.381 165.022L323.632 154.404Z" fill="#FF8B7B"/>
<path d="M348.863 133.912L353.912 145.814L347.529 155.025L332.312 142.709L348.863 133.912Z" fill="#FF8B7B"/>
<path d="M349.69 175.93L334.339 160.758C333.663 160.096 333.596 158.916 334.204 158.15L360.735 124.039C361.343 123.273 362.373 123.19 363.049 123.853L378.4 139.025C379.076 139.687 379.143 140.867 378.535 141.633L352.004 175.744C351.396 176.51 350.366 176.593 349.69 175.93Z" fill="#263238"/>
<path d="M379.431 380.081C379.431 380.081 407.448 329.493 421.094 247.961C424.303 228.753 412.667 210.662 396.69 209.628C383.23 208.758 368.909 208.53 357.341 208.593C345.722 208.655 335.521 218.093 332.329 231.796C325.287 262.057 313.161 306.849 290.565 361.597L379.431 380.081Z" fill="#2051FF"/>
<path opacity="0.2" d="M421.482 238.295C412.042 222.15 403.614 219.894 401.25 220.805C379.431 229.229 402.854 302.916 406.485 311.133C411.873 293.064 417.091 271.827 421.094 247.961C421.617 244.67 421.752 241.441 421.482 238.295Z" fill="black"/>
<path d="M351.008 217.245C350.417 217.245 349.826 217.038 349.302 216.624C347.867 215.465 347.461 213.105 348.39 211.325C348.795 210.559 358.624 192.406 373.469 195.594C375.175 195.966 376.306 197.954 376.002 200.023C375.698 202.114 374.111 203.501 372.388 203.128C361.647 200.831 353.693 215.361 353.609 215.506C353.034 216.644 352.021 217.245 351.008 217.245Z" fill="#263238"/>
<path d="M396.927 157.757C392.536 172.391 386.912 198.885 393.718 209.483C386.203 216.955 377.336 222.73 363.319 222.171C349.302 221.612 352.156 214.74 356.733 208.655C370.378 205.819 371.78 191.744 371.122 180.029L396.927 157.757Z" fill="#FF8B7B"/>
<path d="M335.454 213.602C335.454 220.701 339.558 226.476 344.624 226.476C349.69 226.476 353.794 220.722 353.794 213.602C353.794 206.502 349.69 200.727 344.624 200.727C339.558 200.727 335.454 206.502 335.454 213.602Z" fill="#263238"/>
<path opacity="0.4" d="M335.454 213.602C335.454 220.701 339.558 226.476 344.624 226.476C349.69 226.476 353.794 220.722 353.794 213.602C353.794 206.502 349.69 200.727 344.624 200.727C339.558 200.727 335.454 206.502 335.454 213.602Z" fill="#407BFF"/>
<path d="M336.568 213.602C336.568 221.716 341.939 228.277 348.542 228.277C355.145 228.277 360.516 221.695 360.516 213.602C360.516 205.509 355.145 198.926 348.542 198.926C341.939 198.926 336.568 205.488 336.568 213.602Z" fill="#263238"/>
<path opacity="0.2" d="M386.422 166.844L371.155 180.008C371.324 182.781 371.358 185.576 371.121 188.287C376.256 187.791 384.092 181.436 385.561 174.875C386.287 171.583 386.625 168.417 386.422 166.844Z" fill="black"/>
<path d="M401.807 137.389C397.889 156.805 396.403 168.355 386.76 177.089C372.253 190.212 353.727 178.041 352.798 157.881C351.97 139.728 358.523 111.04 375.462 105.803C392.147 100.649 405.725 117.995 401.807 137.389Z" fill="#FF8B7B"/>
<path d="M394.545 122.569C388.685 114.704 360.82 127.413 357.611 109.964C354.402 92.5148 370.378 88.4786 376.627 96.6753C380.174 101.332 389.074 92.1423 393.025 99.2212C399.629 111.04 409.238 104.644 412.008 115.739C414.321 124.991 402.297 132.981 394.545 122.569Z" fill="#263238"/>
<path d="M406.553 124.681C406.553 124.681 412.227 120.003 417.344 130.352C413.021 126.461 406.553 124.681 406.553 124.681Z" fill="#263238"/>
<path d="M407.178 121.99L400.237 118.471C390.509 122.838 390.779 131.345 390.779 139.314C390.779 149.27 385.578 155.025 385.578 155.025L394.613 158.585C394.596 158.585 426.633 141.985 407.178 121.99Z" fill="#263238"/>
<path d="M404.425 161.338C401.216 164.277 397.214 165.25 393.988 164.753C389.124 164.008 388.77 158.274 391.86 153.99C394.647 150.14 400.524 145.876 404.577 148.794C408.546 151.671 408.09 157.964 404.425 161.338Z" fill="#FF8B7B"/>
<path d="M374.871 138.052C374.634 139.646 373.739 140.825 372.878 140.68C372.017 140.536 371.527 139.128 371.763 137.534C372 135.941 372.895 134.761 373.756 134.906C374.6 135.051 375.107 136.458 374.871 138.052Z" fill="#263238"/>
<path d="M359.148 135.961C358.911 137.555 358.016 138.735 357.155 138.59C356.294 138.445 355.804 137.038 356.04 135.444C356.277 133.85 357.172 132.67 358.033 132.815C358.895 132.96 359.384 134.367 359.148 135.961Z" fill="#263238"/>
<path d="M364.67 137.638C364.67 137.638 360.313 146.352 356.361 150.243C358.287 153.245 362.407 152.686 362.407 152.686L364.67 137.638Z" fill="#FF5652"/>
<path d="M367.997 160.758C373.114 160.758 376.053 156.908 376.188 156.743C376.34 156.536 376.323 156.246 376.171 156.08C376.019 155.915 375.766 155.935 375.614 156.122C375.58 156.163 372.152 160.613 366.41 159.682C366.19 159.64 365.988 159.827 365.954 160.096C365.92 160.344 366.055 160.593 366.275 160.634C366.866 160.717 367.44 160.758 367.997 160.758Z" fill="#263238"/>
<path d="M381.39 133.415C381.525 133.415 381.66 133.374 381.778 133.291C382.166 133.043 382.318 132.463 382.116 132.008C380.157 127.454 376.576 127.144 376.424 127.123C376.002 127.082 375.614 127.495 375.563 128.013C375.512 128.53 375.816 128.986 376.256 129.006C376.374 129.027 379.16 129.296 380.731 132.939C380.866 133.25 381.119 133.415 381.39 133.415Z" fill="#263238"/>
<path d="M356.53 128.965C356.783 129.027 357.054 128.924 357.239 128.696C359.773 125.715 362.508 126.295 362.627 126.316C363.049 126.419 363.471 126.067 363.572 125.571C363.674 125.053 363.42 124.577 362.998 124.474C362.846 124.432 359.334 123.646 356.159 127.392C355.838 127.765 355.821 128.365 356.125 128.737C356.26 128.862 356.395 128.944 356.53 128.965Z" fill="#263238"/>
<path d="M86.9778 548.298L77.3008 529.111L110.655 494.42L120.332 513.607L86.9778 548.298Z" fill="#FF8B7B"/>
<path d="M82.9753 522.466L98.4786 537.038C99.0022 537.535 99.0866 538.466 98.6982 539.315L90.0683 558.027C89.1732 559.972 87.1635 560.717 85.9814 559.558C81.0838 554.756 77.723 550.906 71.4406 545.007C67.5732 541.385 55.5319 531.015 50.1953 525.985C44.9768 521.079 49.3677 512.676 52.0192 514.042C63.9254 520.148 74.2272 522.797 80.138 521.659C81.202 521.452 82.2153 521.742 82.9753 522.466Z" fill="#263238"/>
<path opacity="0.2" d="M120.315 513.628L110.638 494.42L93.4459 512.324L104.947 529.628L120.315 513.628Z" fill="black"/>
<path d="M314.377 366.585C314.377 366.585 256.957 378.963 202.865 400.407C165.39 415.248 100.151 500.153 100.151 500.153L116.245 530.125C116.245 530.125 196.954 458.797 213.116 439.982C305.004 426.611 374.905 455.61 379.447 380.081C363.522 374.699 314.377 366.585 314.377 366.585Z" fill="#263238"/>
<path d="M92.4833 501.022L117.444 536.003L127.189 526.192L101.637 488.934L92.4833 501.022Z" fill="#407BFF"/>
<path d="M422.512 238.254C425.383 253.529 427.579 268.515 429.166 284.08C429.943 291.842 430.568 299.687 430.788 307.822C430.906 311.899 430.94 316.039 430.754 320.448C430.653 322.642 430.484 324.919 430.197 327.361C429.893 329.804 429.504 332.412 428.626 335.558C428.153 337.172 427.528 339.015 426.515 341.002C425.772 342.388 424.995 343.672 424.184 344.789C422.563 347.066 420.874 348.908 419.202 350.482C415.825 353.586 412.481 355.739 409.205 357.581C402.652 361.224 396.201 363.356 389.834 365.198C383.433 366.916 377.1 368.158 370.75 368.986C364.366 369.814 358.135 370.352 351.616 370.352L350.298 355.366C361.867 351.827 373.689 347.936 384.582 343.009C390.036 340.608 395.289 337.773 399.764 334.626C401.976 333.053 403.969 331.335 405.388 329.679C406.097 328.872 406.654 328.086 407.009 327.465C407.195 327.154 407.296 326.885 407.381 326.657C407.161 327.03 407.127 327.113 407.144 326.927C407.195 326.471 407.347 325.333 407.414 324.029C407.482 322.704 407.499 321.193 407.482 319.62C407.448 316.453 407.296 313.038 407.026 309.581C406.486 302.626 405.675 295.444 404.746 288.241C402.871 273.876 400.592 259.118 398.244 244.857L422.512 238.254Z" fill="#FF8B7B"/>
<path d="M402.854 210.952C406.266 212.07 421.55 214.906 432.443 260.774L395.643 278.388C395.643 278.388 370.159 200.251 402.854 210.952Z" fill="#407BFF"/>
<path d="M390.222 220.639C390.222 228.753 384.852 235.315 378.248 235.315C371.645 235.315 366.275 228.732 366.275 220.639C366.275 212.546 371.645 205.964 378.248 205.964C384.852 205.964 390.222 212.525 390.222 220.639Z" fill="#263238"/>
<path d="M377.624 228.588C376.323 228.588 375.107 227.573 374.668 225.98C374.111 223.972 374.989 221.798 376.61 221.115C376.796 221.033 390.205 215.196 391.05 201.886C391.185 199.775 392.671 198.202 394.411 198.368C396.133 198.533 397.417 200.375 397.281 202.487C396.116 220.888 379.346 228.07 378.62 228.381C378.282 228.525 377.945 228.588 377.624 228.588Z" fill="#263238"/>
<path d="M391.32 220.639C391.32 227.739 387.216 233.514 382.15 233.514C377.083 233.514 372.979 227.76 372.979 220.639C372.979 213.54 377.083 207.765 382.15 207.765C387.216 207.765 391.32 213.519 391.32 220.639Z" fill="#263238"/>
<path opacity="0.4" d="M391.32 220.639C391.32 227.739 387.216 233.514 382.15 233.514C377.083 233.514 372.979 227.76 372.979 220.639C372.979 213.54 377.083 207.765 382.15 207.765C387.216 207.765 391.32 213.519 391.32 220.639Z" fill="#407BFF"/>
<path d="M352.697 354.683L338.409 357.188L345.198 378.383C345.198 378.383 360.803 373.519 360.718 363.998L357.358 357.374C356.378 355.408 354.537 354.352 352.697 354.683Z" fill="#FF8B7B"/>
<path d="M323.244 367.806L332.177 385.048L345.198 378.363L338.409 357.188L323.244 367.806Z" fill="#FF8B7B"/>
<path d="M186.027 373.126H365.312C367.575 373.126 369.416 375.403 369.416 378.156H181.923C181.923 375.403 183.764 373.126 186.027 373.126Z" fill="#407BFF"/>
<path opacity="0.2" d="M186.027 373.126H365.312C367.575 373.126 369.416 375.403 369.416 378.156H181.923C181.923 375.403 183.764 373.126 186.027 373.126Z" fill="white"/>
<path opacity="0.4" d="M312.992 373.126H365.312C367.575 373.126 369.416 375.403 369.416 378.156H308.872C308.889 375.403 310.729 373.126 312.992 373.126Z" fill="black"/>
<path d="M164.41 260.774H289.906C293.909 260.774 297.945 264.789 298.857 269.716L316.303 364.184C317.214 369.09 314.664 373.126 310.662 373.126H185.166C181.163 373.126 177.127 369.11 176.215 364.184L158.769 269.716C157.874 264.81 160.408 260.774 164.41 260.774Z" fill="#407BFF"/>
<path opacity="0.2" d="M164.41 260.774H289.906C293.909 260.774 297.945 264.789 298.857 269.716L316.303 364.184C317.214 369.09 314.664 373.126 310.662 373.126H185.166C181.163 373.126 177.127 369.11 176.215 364.184L158.769 269.716C157.874 264.81 160.408 260.774 164.41 260.774Z" fill="white"/>
<path opacity="0.4" d="M312.773 368.883L293.909 266.735C293.52 264.686 295.648 263.32 296.797 264.914C297.793 266.3 298.519 267.956 298.857 269.736L316.303 364.205C316.674 366.13 316.488 367.93 315.897 369.4C315.205 371.097 313.128 370.725 312.773 368.883Z" fill="black"/>
<path d="M487.667 546.849H452.945L421.398 425.183C415.301 401.648 397.67 385.835 377.522 385.835H353.136C333.005 385.835 315.374 401.648 309.277 425.183L277.713 546.849H243.025L275.163 422.865C282.087 396.122 302.1 378.176 324.983 378.176H405.675C428.541 378.176 448.571 396.122 455.512 422.865L487.667 546.849Z" fill="#407BFF"/>
<path opacity="0.4" d="M487.667 546.849H452.945L421.398 425.183C415.301 401.648 397.67 385.835 377.522 385.835H353.136C333.005 385.835 315.374 401.648 309.277 425.183L277.713 546.849H243.025L275.163 422.865C282.087 396.122 302.1 378.176 324.983 378.176H405.675C428.541 378.176 448.571 396.122 455.512 422.865L487.667 546.849Z" fill="black"/>
<path d="M487.667 546.849H481.097L449.55 425.183C443.454 401.648 425.822 385.835 405.675 385.835H353.136C333.005 385.835 315.374 401.648 309.277 425.183L277.713 546.849H271.177L303.316 422.865C310.24 396.122 330.252 378.176 353.136 378.176H405.675C428.541 378.176 448.571 396.122 455.512 422.865L487.667 546.849Z" fill="#407BFF"/>
<path d="M358.311 287.562L360.91 288.605L358.896 296.155L356.297 295.112L354.425 302.131L349.608 300.197L351.48 293.178L340.009 288.574L342.023 281.024L357.224 257.546L362.354 259.605L347.186 283.097L353.494 285.629L356.105 275.837L360.922 277.771L358.311 287.562Z" fill="white"/>
</svg>
