<svg width="490" height="134" viewBox="0 0 490 134" fill="none" xmlns="http://www.w3.org/2000/svg">
<path d="M109.838 79.1569H101.396V94.2947H89.6933V79.1569H60.3493L60 72.0538L89.344 26H98.6596H101.338V69.7831H109.78V79.1569H109.838ZM89.7515 69.7831V41.8364L88.8782 43.3502L72.2267 69.8413H89.7515V69.7831Z" fill="white"/>
<path d="M211.844 45.7956C214.813 47.9498 217.084 50.9192 218.597 54.82C220.111 58.7209 220.868 63.2622 220.868 68.444V69.4338C220.868 74.3827 220.111 78.8658 218.539 82.7667C216.967 86.6676 214.755 89.7534 211.785 91.9658C208.816 94.1783 205.264 95.2845 201.131 95.2845C195.716 95.2845 191.291 93.4796 187.914 89.8116V119.33H176.212V43.5249H186.983L187.448 48.6485C190.884 44.6311 195.367 42.5934 201.014 42.5934C205.264 42.5934 208.874 43.6414 211.844 45.7956ZM209.224 68.3858C209.224 63.5534 208.292 59.6525 206.371 56.6249C204.449 53.5974 201.596 52.0836 197.754 52.0836C193.212 52.0836 189.894 54.0049 187.914 57.7894V80.0885C189.952 83.9311 193.271 85.8525 197.87 85.8525C201.713 85.8525 204.508 84.3387 206.429 81.2529C208.292 78.1671 209.224 74.208 209.224 69.3756V68.3858Z" fill="white"/>
<path d="M272.453 93.4796V94.2947H260.517C259.993 93.1885 259.586 91.6165 259.178 89.5787C257.606 91.3254 255.685 92.6645 253.472 93.7125C251.26 94.7605 248.756 95.2845 245.904 95.2845C242.585 95.2845 239.616 94.6441 236.996 93.3049C234.376 91.9658 232.338 90.161 230.824 87.8903C229.368 85.5614 228.612 82.9996 228.612 80.0885C228.612 74.6738 230.649 70.5401 234.667 67.629C238.684 64.7761 244.39 63.3205 251.784 63.3205H258.829V60.0601C258.829 57.3819 258.072 55.2858 256.616 53.7721C255.161 52.2583 252.948 51.5014 250.096 51.5014C248.349 51.5014 246.835 51.7925 245.554 52.3747C244.215 52.957 243.225 53.7721 242.527 54.8201C241.828 55.8681 241.42 57.0325 241.42 58.3134H229.718C229.718 55.577 230.591 53.0152 232.338 50.6281C234.084 48.241 236.53 46.3196 239.732 44.8641C242.934 43.4085 246.602 42.7098 250.736 42.7098C254.637 42.7098 258.014 43.3503 260.983 44.6894C263.952 46.0285 266.281 47.9499 267.97 50.6281C269.658 53.2481 270.473 56.4503 270.473 60.2347V82.592C270.532 87.1334 271.172 90.8014 272.453 93.4796ZM254.695 84.1641C256.558 82.9996 257.956 81.6023 258.829 79.972V70.4818H252.716C248.64 70.4818 245.554 71.2387 243.458 72.6943C241.362 74.1498 240.314 76.2458 240.314 78.8658C240.314 80.9036 241.013 82.5921 242.352 83.9312C243.749 85.2121 245.671 85.8525 248.116 85.8525C250.678 85.9107 252.832 85.3285 254.695 84.1641Z" fill="white"/>
<path d="M324.096 77.4103C323.98 80.6707 322.99 83.64 321.127 86.3765C319.264 89.1129 316.76 91.2672 313.616 92.8392C310.472 94.4112 307.037 95.2263 303.369 95.2263C298.304 95.2263 294.053 94.12 290.56 91.8494C287.067 89.5787 284.447 86.5512 282.758 82.6503C281.012 78.8076 280.196 74.4409 280.196 69.6667V68.0947C280.196 63.3205 281.07 59.0121 282.816 55.1112C284.563 51.2685 287.183 48.1827 290.618 45.912C294.112 43.6414 298.304 42.5352 303.311 42.5352C307.328 42.5352 310.938 43.3503 314.024 44.9223C317.109 46.5525 319.555 48.7649 321.301 51.6761C323.048 54.5872 323.98 57.9058 324.096 61.6903H313.092C312.976 59.8854 312.568 58.2552 311.753 56.7414C310.938 55.2276 309.832 54.0631 308.376 53.1898C306.92 52.3165 305.232 51.8507 303.252 51.8507C299.119 51.8507 296.149 53.3645 294.461 56.392C292.772 59.4196 291.899 63.2623 291.899 67.9783V69.5503C291.899 80.3214 295.684 85.6778 303.252 85.6778C305.057 85.6778 306.688 85.3285 308.143 84.5716C309.599 83.8729 310.763 82.8249 311.636 81.544C312.51 80.2631 312.976 78.8076 313.092 77.1774H324.096V77.4103Z" fill="white"/>
<path d="M375.506 72.5778H342.436C342.669 75.1978 343.309 77.4685 344.474 79.4481C345.58 81.4276 347.152 82.9996 349.073 84.164C350.995 85.2703 353.265 85.8525 355.827 85.8525C361.067 85.8525 365.317 83.8147 368.52 79.6809L374.749 85.7361C372.886 88.4725 370.324 90.7432 367.064 92.5481C363.804 94.353 359.786 95.2845 355.128 95.2845C350.18 95.2845 345.871 94.2365 342.203 92.0823C338.535 89.9281 335.682 87.0169 333.703 83.2907C331.723 79.5645 330.733 75.3725 330.733 70.7729V68.8516C330.733 63.6116 331.723 59.012 333.761 55.0529C335.74 51.0938 338.535 48.0663 342.028 45.8538C345.522 43.6996 349.481 42.5934 353.848 42.5934C358.622 42.5934 362.639 43.6414 365.9 45.7374C369.16 47.8334 371.605 50.7445 373.177 54.5289C374.808 58.3134 375.564 62.6801 375.564 67.629V72.5778H375.506ZM363.978 63.2623C363.803 60.0018 362.93 57.2654 361.3 55.1694C359.67 53.0734 357.166 52.0254 353.673 52.0254C350.587 52.0254 348.142 53.0734 346.279 55.2276C344.416 57.3818 343.193 60.3512 342.669 64.1938H363.978V63.2623Z" fill="white"/>
<path d="M388.257 67.6872C385.113 65.3 383.541 62.0978 383.541 58.0223C383.541 55.2276 384.356 52.6658 385.928 50.2787C387.558 47.8916 389.829 46.0285 392.798 44.6312C395.768 43.2338 399.261 42.5352 403.162 42.5352C407.296 42.5352 410.963 43.2338 414.049 44.6312C417.135 46.0285 419.522 47.9498 421.152 50.4534C422.783 52.8987 423.656 55.6934 423.656 58.7209H411.953C411.953 57.3818 411.604 56.1592 410.964 54.9947C410.265 53.8303 409.275 52.9569 407.994 52.2583C406.655 51.5596 405.083 51.2103 403.22 51.2103C400.542 51.2103 398.504 51.7925 397.048 53.0152C395.593 54.1796 394.894 55.6934 394.894 57.4983C394.894 58.6045 395.185 59.5943 395.826 60.3512C396.408 61.1081 397.514 61.8649 398.97 62.4472C400.484 63.0876 402.58 63.6698 405.2 64.252C409.333 65.1254 412.768 66.1734 415.447 67.4543C418.183 68.6769 420.279 70.3072 421.735 72.3449C423.19 74.3245 423.947 76.8281 423.947 79.8556C423.947 82.8249 423.074 85.5031 421.385 87.832C419.697 90.1609 417.252 92.024 414.166 93.3049C411.022 94.5858 407.412 95.2263 403.336 95.2263C398.912 95.2263 395.069 94.4111 391.808 92.7809C388.548 91.1507 386.103 89.0547 384.414 86.4347C382.726 83.8147 381.852 81.0783 381.852 78.2254H393.148C393.264 81.0783 394.312 83.1743 396.292 84.5134C398.271 85.8525 400.658 86.5512 403.511 86.5512C406.364 86.5512 408.576 85.9689 410.148 84.8627C411.72 83.7565 412.536 82.3009 412.536 80.4378C412.536 79.2734 412.244 78.2254 411.662 77.4103C411.08 76.5369 410.032 75.7801 408.46 75.0814C406.888 74.3827 404.617 73.684 401.706 73.1018C395.942 71.8792 391.459 70.0743 388.257 67.6872Z" fill="white"/>
<path d="M126.404 68.2205C123.26 65.8334 121.688 62.6312 121.688 58.5556C121.688 55.7609 122.504 53.1991 124.076 50.812C125.706 48.4249 127.976 46.5618 130.946 45.1645C133.915 43.7672 137.408 43.0685 141.309 43.0685C145.443 43.0685 149.111 43.7672 152.197 45.1645C155.283 46.5618 157.67 48.4832 159.3 50.9867C160.93 53.4321 161.803 56.2267 161.803 59.2542H150.101C150.101 57.9151 149.751 56.6925 149.111 55.528C148.412 54.3636 147.423 53.4903 146.142 52.7916C144.803 52.0929 143.231 51.7436 141.367 51.7436C138.689 51.7436 136.652 52.3258 135.196 53.5485C133.74 54.7129 133.042 56.2267 133.042 58.0316C133.042 59.1378 133.333 60.1276 133.973 60.8845C134.556 61.6414 135.662 62.3983 137.117 62.9805C138.631 63.6209 140.727 64.2031 143.347 64.7854C147.481 65.6587 150.916 66.7067 153.594 67.9876C156.331 69.2102 158.427 70.8405 159.882 72.8783C161.338 74.8578 162.095 77.3614 162.095 80.3889C162.095 83.3583 161.221 86.0365 159.533 88.3654C157.844 90.6942 155.399 92.5574 152.313 93.8383C149.169 95.1191 145.56 95.7596 141.484 95.7596C137.059 95.7596 133.216 94.9445 129.956 93.3142C126.696 91.684 124.25 89.588 122.562 86.968C120.873 84.348 120 81.6116 120 78.7587H131.295C131.412 81.6116 132.459 83.7076 134.439 85.0467C136.419 86.3858 138.806 87.0845 141.659 87.0845C144.511 87.0845 146.724 86.5023 148.296 85.396C149.868 84.2898 150.683 82.8343 150.683 80.9712C150.683 79.8067 150.392 78.7587 149.81 77.9436C149.227 77.0703 148.179 76.3134 146.607 75.6147C145.035 74.916 142.765 74.2174 139.854 73.6351C134.09 72.4125 129.607 70.6076 126.404 68.2205Z" fill="white"/>
<path fill-rule="evenodd" clip-rule="evenodd" d="M0 62.5889C1.51378 62.5889 3.9009 62.356 5.76401 61.2498C7.45246 60.26 8.84975 58.2804 8.84975 54.496V16.3604C8.84975 9.02445 12.052 4.89067 15.8947 2.56178C19.5045 0.407561 23.58 0 26.0253 0H33.012V8.20934H26.0253C24.5115 8.20934 22.0662 8.38401 20.1449 9.54845C18.4564 10.5382 17.0591 12.5178 17.0591 16.3022V54.4378C17.0591 60.3764 14.9631 64.1609 12.1685 66.6644C15.0213 69.168 17.0591 73.0107 17.0591 78.8911V117.085C17.0591 120.869 18.4564 122.849 20.1449 123.839C22.0662 125.003 24.5115 125.178 26.0253 125.178H33.012V133.387H26.0253C23.58 133.387 19.5045 133.038 15.8947 130.825C12.052 128.496 8.84975 124.363 8.84975 117.027V78.8911C8.84975 75.1067 7.45246 73.1271 5.76401 72.1373C3.9009 71.0311 1.51378 70.7982 0 70.7982V62.5889Z" fill="white"/>
<path fill-rule="evenodd" clip-rule="evenodd" d="M472.299 54.496V16.3604C472.299 12.576 470.901 10.5964 469.213 9.60667C467.292 8.44222 464.846 8.26756 463.332 8.26756H456.346V0.0582275H463.332C465.778 0.0582275 469.853 0.407557 473.463 2.62C477.306 4.94889 480.508 9.08267 480.508 16.4187V54.5542C480.508 58.3387 481.905 60.3182 483.594 61.308C485.457 62.4725 487.844 62.6471 489.358 62.6471V70.8564C487.844 70.8564 485.457 71.0893 483.594 72.1955C481.905 73.1853 480.508 75.1649 480.508 78.9493V117.085C480.508 124.421 477.306 128.555 473.463 130.884C469.853 133.038 465.778 133.445 463.332 133.445H456.346V125.236H463.332C464.846 125.236 467.292 125.061 469.213 123.897C470.901 122.907 472.299 120.928 472.299 117.143V79.0076C472.299 73.0689 474.395 69.2844 477.189 66.7809C474.336 64.2191 472.299 60.3764 472.299 54.496Z" fill="white"/>
</svg>
